<svg width="170" height="74" viewBox="0 0 170 74" fill="none" xmlns="http://www.w3.org/2000/svg">
<path d="M56.9999 22.43V60.5072C56.9999 64.7106 53.5978 68.1128 49.3943 68.1128H19.2185C15.0151 68.1128 11.6129 64.7106 11.6129 60.5072V12.6056C11.6006 8.40217 15.0151 5 19.2185 5H39.57L56.9999 22.43Z" fill="#EDEDED"/>
<path d="M56.9999 22.43H42.7133C40.9752 22.43 39.5699 21.0247 39.5699 19.2867V5L56.9999 22.43Z" fill="#F15642"/>
<path d="M10.4789 30.9724H48.2356C50.8119 30.9724 52.8951 33.0556 52.8951 35.6319V46.9725C52.8951 49.5487 50.8119 51.632 48.2356 51.632H10.4789C7.90261 51.632 5.8194 49.5487 5.8194 46.9725V35.6319C5.8194 33.0556 7.90261 30.9724 10.4789 30.9724Z" fill="#F15642"/>
<path d="M23.7671 39.0217C23.7671 41.6473 22.3741 43.1019 19.9211 43.1019H18.4173V47.5025H16.6176V34.9909H19.9211C22.3741 34.9909 23.7671 36.4701 23.7671 39.0217ZM21.9304 39.0217C21.9304 37.4809 21.2647 36.692 19.9088 36.692H18.4296V41.3761H19.9088C21.2647 41.3885 21.9304 40.6365 21.9304 39.0217Z" fill="white"/>
<path d="M32.7163 34.9909V47.5025H30.9166L28.1307 41.3638C27.7609 40.4393 27.2432 39.1327 26.935 38.3314L26.8857 38.3684C27.009 39.6134 27.0953 41.4994 27.0953 42.6828V47.5025H25.3079V34.9909H27.1076L29.9797 41.3638C30.3495 42.202 30.818 43.3607 31.1261 44.1127L31.1754 44.0757C31.0275 42.843 30.9289 40.9693 30.9289 39.8599V34.9786H32.7163V34.9909Z" fill="white"/>
<path d="M34.8611 43.7798V38.6889C34.8611 36.1496 36.2541 34.7937 38.5222 34.7937C40.741 34.7937 42.0846 36.1373 42.1709 38.6026H40.3835C40.3096 37.1481 39.6686 36.5317 38.5222 36.5317C37.3758 36.5317 36.6978 37.1974 36.6978 38.7136V43.7922C36.6978 45.3083 37.4128 45.974 38.5715 45.974C39.7672 45.974 40.4821 45.3083 40.4821 43.8784V42.313H38.4975V40.7105H42.2572V43.8908C42.2202 46.3438 40.8149 47.7121 38.5592 47.7121C36.3034 47.7121 34.8611 46.3191 34.8611 43.7798Z" fill="white"/>
<path d="M87.2646 27.0564L84.483 29.7707L89.4701 34.6371H74.3112L73 36.5564L74.3112 38.4757H89.4701L84.483 43.3421L87.2646 46.0564L97 36.5564L87.2646 27.0564Z" fill="#FF3377"/>
<path d="M164.181 22.43V60.5072C164.181 64.7106 160.778 68.1128 156.575 68.1128H126.399C122.196 68.1128 118.794 64.7106 118.794 60.5072V12.6056C118.781 8.40217 122.196 5 126.399 5H146.751L164.181 22.43Z" fill="#EDEDED"/>
<path d="M164.181 22.43H149.894C148.156 22.43 146.751 21.0247 146.751 19.2867V5L164.181 22.43Z" fill="#F7B84E"/>
<path d="M117.659 30.9724H155.416C157.993 30.9724 160.076 33.0556 160.076 35.6319V46.9725C160.076 49.5488 157.993 51.632 155.416 51.632H117.659C115.083 51.632 113 49.5488 113 46.9725V35.6319C113 33.0556 115.083 30.9724 117.659 30.9724Z" fill="#F7B84E"/>
<path d="M126.461 37.9493C126.461 37.0618 127.052 36.4824 128.063 36.4824C129.025 36.4824 129.653 37.0495 129.69 38.2452H131.527C131.478 36.125 130.183 34.7444 128.039 34.7444C125.931 34.7444 124.612 36.1003 124.612 37.9123C124.612 41.635 129.851 41.7706 129.851 44.2606C129.851 45.2591 129.259 45.974 128.063 45.974C126.954 45.974 126.264 45.3453 126.239 44.0634H124.402C124.415 46.3561 125.857 47.7244 128.063 47.7244C130.405 47.7244 131.712 46.1343 131.712 44.2729C131.712 40.4023 126.461 40.4023 126.461 37.9493Z" fill="white"/>
<path d="M137.013 41.8815C136.778 42.9909 136.569 44.2113 136.384 45.2097H136.31C136.137 44.2113 135.94 42.9909 135.681 41.8815L134.177 34.9786H132.279L135.348 47.4902H137.321L140.39 34.9786H138.504L137.013 41.8815Z" fill="white"/>
<path d="M145.086 40.6858V42.2883H147.071V43.8661C147.071 45.296 146.356 45.9617 145.16 45.9617C144.002 45.9617 143.287 45.296 143.287 43.7798V38.7012C143.287 37.1851 143.965 36.5194 145.111 36.5194C146.257 36.5194 146.898 37.1481 146.972 38.5903H148.76C148.674 36.125 147.33 34.7813 145.111 34.7813C142.843 34.7813 141.45 36.1373 141.45 38.6766V43.7675C141.45 46.3068 142.905 47.6874 145.148 47.6874C147.392 47.6874 148.809 46.3068 148.846 43.8661V40.6858H145.086Z" fill="white"/>
</svg>
